<svg width="118" height="83" viewBox="0 0 118 83" fill="none" xmlns="http://www.w3.org/2000/svg">
<g filter="url(#filter0_d_14_18)">
<path d="M28.692 50.18V45.5L49.392 45.536C50.448 45.536 51.252 45.296 51.804 44.816C52.38 44.312 52.668 43.508 52.668 42.404C52.668 41.3 52.38 40.508 51.804 40.028C51.252 39.524 50.448 39.272 49.392 39.272H36.504C33.84 39.272 31.764 38.636 30.276 37.364C28.812 36.068 28.08 34.172 28.08 31.676C28.08 29.18 28.812 27.296 30.276 26.024C31.764 24.728 33.84 24.08 36.504 24.08H56.736V28.76L37.116 28.724C36.084 28.724 35.28 28.964 34.704 29.444C34.128 29.9 33.84 30.644 33.84 31.676C33.84 32.708 34.128 33.464 34.704 33.944C35.28 34.4 36.084 34.628 37.116 34.628H50.004C52.668 34.628 54.732 35.288 56.196 36.608C57.684 37.904 58.428 39.836 58.428 42.404C58.428 44.948 57.684 46.88 56.196 48.2C54.732 49.52 52.668 50.18 50.004 50.18H28.692ZM62.0395 50V24.26H89.5435V28.94H67.7995V36.068H86.7355V40.748H67.7995V50H62.0395Z" fill="#F7AAD4"/>
</g>
<defs>
<filter id="filter0_d_14_18" x="0.0799561" y="0.0800171" width="117.464" height="82.1" filterUnits="userSpaceOnUse" color-interpolation-filters="sRGB">
<feFlood flood-opacity="0" result="BackgroundImageFix"/>
<feColorMatrix in="SourceAlpha" type="matrix" values="0 0 0 0 0 0 0 0 0 0 0 0 0 0 0 0 0 0 127 0" result="hardAlpha"/>
<feOffset dy="4"/>
<feGaussianBlur stdDeviation="14"/>
<feComposite in2="hardAlpha" operator="out"/>
<feColorMatrix type="matrix" values="0 0 0 0 0.380392 0 0 0 0 0.556863 0 0 0 0 1 0 0 0 1 0"/>
<feBlend mode="normal" in2="BackgroundImageFix" result="effect1_dropShadow_14_18"/>
<feBlend mode="normal" in="SourceGraphic" in2="effect1_dropShadow_14_18" result="shape"/>
</filter>
</defs>
</svg>
